<?xml version="1.0" ?><!DOCTYPE svg  PUBLIC '-//W3C//DTD SVG 1.1//EN'  'http://www.w3.org/Graphics/SVG/1.1/DTD/svg11.dtd'><svg viewBox="0 0 512 512" xmlns="http://www.w3.org/2000/svg" xmlns:xlink="http://www.w3.org/1999/xlink"><style>:root>svg{display:none}:root>svg:target{display:block}</style><svg viewBox="0 0 512 512" xml:space="preserve" id="icon-instagram" xmlns="http://www.w3.org/2000/svg"><path d="M505 257c0 34.8-.7 69.7.2 104.5 1.5 61.6-37.2 109.2-86.5 130.4-19.8 8.5-40.6 13-62.1 13-67.3.1-134.7 1-202-.3-50.7-1-92.4-22.2-122.3-64-15.7-22-23.2-47-23.2-74.1v-215c0-58.5 28.5-99.4 79.1-126C110.2 14 134.1 9.1 159 9c65.3 0 130.7-.4 196 .2 50.7.4 93 19.8 124.2 60.6 17.4 22.8 25.8 49 25.8 77.8V257zm-459 0v110c0 16.4 3.8 31.8 12.3 45.7 22.3 36.5 56 54.3 97.8 55 67.1 1 134.3.4 201.5.2 16.5 0 32.5-3.4 47.4-10.5 40.6-19.4 63.3-50.3 63.1-96.7-.4-71-.1-142-.1-213 0-20.1-5.7-38.5-17.6-54.7-23-31.1-54.8-46.4-92.8-46.8-67-.8-134-.3-201-.2-14.3 0-28.1 2.9-41.5 7.9-36.8 13.7-71 48.4-69.4 99.5 1.2 34.6.3 69.1.3 103.6z"/><path d="M257.6 363c-64.5 0-116.5-51.4-116.6-115.4-.1-63 52.3-114.6 116.4-114.6 64.3-.1 116.5 51.4 116.6 114.9 0 63.4-52.1 115-116.4 115.1zm0-37c43.9 0 79.5-35.1 79.4-78.3-.1-42.8-35.7-77.8-79.4-77.8-43.9 0-79.7 34.9-79.7 78 .1 43.2 35.8 78.2 79.7 78.1zM387.5 98c13.5 0 24.5 11.5 24.5 25.6-.1 14.1-11.2 25.5-24.7 25.4-13.3-.1-24.2-11.5-24.2-25.3C363 109.6 374 98 387.5 98z"/></svg><svg viewBox="0 0 512 512" id="icon-phone" xmlns="http://www.w3.org/2000/svg"><g data-name="1"><path d="M348.73 450.06a198.63 198.63 0 0 1-46.4-5.85c-52.43-12.65-106.42-44.74-152-90.36s-77.71-99.62-90.36-152c-13.32-55.1-3.82-102.24 26.72-132.78l8.72-8.72a42.2 42.2 0 0 1 59.62 0l50.11 50.1a42.18 42.18 0 0 1 0 59.62l-29.6 29.59c14.19 24.9 33.49 49.82 56.3 72.63s47.75 42.12 72.64 56.31l29.59-29.6a42.15 42.15 0 0 1 59.62 0l50.1 50.1a42.16 42.16 0 0 1 0 59.61l-8.73 8.72c-21.53 21.57-51.33 32.63-86.33 32.63ZM125.22 78a12 12 0 0 0-8.59 3.56l-8.73 8.72c-22.87 22.87-29.55 60-18.81 104.49 11.37 47.13 40.64 96.1 82.41 137.86s90.73 71 137.87 82.41c44.5 10.74 81.61 4.06 104.48-18.81l8.72-8.72a12.16 12.16 0 0 0 0-17.19l-50.09-50.1a12.16 12.16 0 0 0-17.19 0l-37.51 37.51a15 15 0 0 1-17.5 2.72c-30.75-15.9-61.75-39.05-89.65-66.95s-51-58.88-66.94-89.63a15 15 0 0 1 2.71-17.5l37.52-37.51a12.16 12.16 0 0 0 0-17.19l-50.1-50.11a12.07 12.07 0 0 0-8.6-3.56Z"/><path d="M364.75 269.73a15 15 0 0 1-15-15 99.37 99.37 0 0 0-99.25-99.26 15 15 0 0 1 0-30c71.27 0 129.25 58 129.25 129.26a15 15 0 0 1-15 15Z"/><path d="M428.15 269.73a15 15 0 0 1-15-15c0-89.69-73-162.66-162.65-162.66a15 15 0 0 1 0-30c106.23 0 192.65 86.43 192.65 192.66a15 15 0 0 1-15 15Z"/></g></svg><svg viewBox="0 0 20 23" id="icon-play" xmlns="http://www.w3.org/2000/svg"><path fill-rule="evenodd" clip-rule="evenodd" d="M15.155 11.5 3 4.232v14.536L15.155 11.5Zm2.975 1.717c1.298-.777 1.298-2.657 0-3.433L3.026.752C1.693-.045 0 .916 0 2.47v18.062c0 1.553 1.693 2.514 3.026 1.717l15.104-9.031Z"/></svg></svg>